<mxfile host="app.diagrams.net" agent="Mozilla/5.0 (Windows NT 10.0; Win64; x64) AppleWebKit/537.36 (KHTML, like Gecko) Chrome/138.0.0.0 Safari/537.36" version="28.0.6" pages="2">
  <diagram name="Halaman-1" id="fWN3TclfnWAwMFWTl_Pl">
    <mxGraphModel dx="946" dy="605" grid="1" gridSize="10" guides="1" tooltips="1" connect="1" arrows="1" fold="1" page="1" pageScale="1" pageWidth="827" pageHeight="1169" math="0" shadow="0">
      <root>
        <mxCell id="0" />
        <mxCell id="1" parent="0" />
        <mxCell id="AtmiPv3TAr3_Vtmdqer5-6" style="edgeStyle=orthogonalEdgeStyle;rounded=0;orthogonalLoop=1;jettySize=auto;html=1;entryX=0.5;entryY=0;entryDx=0;entryDy=0;" edge="1" parent="1" source="AtmiPv3TAr3_Vtmdqer5-2" target="AtmiPv3TAr3_Vtmdqer5-3">
          <mxGeometry relative="1" as="geometry" />
        </mxCell>
        <mxCell id="AtmiPv3TAr3_Vtmdqer5-2" value="Pengumpulan Data" style="rounded=1;whiteSpace=wrap;html=1;" vertex="1" parent="1">
          <mxGeometry x="80" y="40" width="160" height="50" as="geometry" />
        </mxCell>
        <mxCell id="AtmiPv3TAr3_Vtmdqer5-7" style="edgeStyle=orthogonalEdgeStyle;rounded=0;orthogonalLoop=1;jettySize=auto;html=1;entryX=0.5;entryY=0;entryDx=0;entryDy=0;" edge="1" parent="1" source="AtmiPv3TAr3_Vtmdqer5-3" target="AtmiPv3TAr3_Vtmdqer5-4">
          <mxGeometry relative="1" as="geometry" />
        </mxCell>
        <mxCell id="swl-CrRnGrNiETKUzpTG-21" style="edgeStyle=orthogonalEdgeStyle;rounded=0;orthogonalLoop=1;jettySize=auto;html=1;entryX=0;entryY=0.5;entryDx=0;entryDy=0;" edge="1" parent="1" source="AtmiPv3TAr3_Vtmdqer5-3" target="swl-CrRnGrNiETKUzpTG-2">
          <mxGeometry relative="1" as="geometry" />
        </mxCell>
        <mxCell id="swl-CrRnGrNiETKUzpTG-22" style="edgeStyle=orthogonalEdgeStyle;rounded=0;orthogonalLoop=1;jettySize=auto;html=1;entryX=0;entryY=0.5;entryDx=0;entryDy=0;" edge="1" parent="1" source="AtmiPv3TAr3_Vtmdqer5-3" target="swl-CrRnGrNiETKUzpTG-1">
          <mxGeometry relative="1" as="geometry" />
        </mxCell>
        <mxCell id="AtmiPv3TAr3_Vtmdqer5-3" value="Pra-pemrosesan Data" style="rounded=1;whiteSpace=wrap;html=1;" vertex="1" parent="1">
          <mxGeometry x="80" y="130" width="160" height="50" as="geometry" />
        </mxCell>
        <mxCell id="AtmiPv3TAr3_Vtmdqer5-8" style="edgeStyle=orthogonalEdgeStyle;rounded=0;orthogonalLoop=1;jettySize=auto;html=1;entryX=0.5;entryY=0;entryDx=0;entryDy=0;" edge="1" parent="1" source="AtmiPv3TAr3_Vtmdqer5-4" target="AtmiPv3TAr3_Vtmdqer5-5">
          <mxGeometry relative="1" as="geometry" />
        </mxCell>
        <mxCell id="swl-CrRnGrNiETKUzpTG-9" style="edgeStyle=orthogonalEdgeStyle;rounded=0;orthogonalLoop=1;jettySize=auto;html=1;entryX=0;entryY=0.5;entryDx=0;entryDy=0;" edge="1" parent="1" source="AtmiPv3TAr3_Vtmdqer5-4" target="swl-CrRnGrNiETKUzpTG-3">
          <mxGeometry relative="1" as="geometry" />
        </mxCell>
        <mxCell id="swl-CrRnGrNiETKUzpTG-10" style="edgeStyle=orthogonalEdgeStyle;rounded=0;orthogonalLoop=1;jettySize=auto;html=1;entryX=0;entryY=0.5;entryDx=0;entryDy=0;" edge="1" parent="1" source="AtmiPv3TAr3_Vtmdqer5-4" target="swl-CrRnGrNiETKUzpTG-6">
          <mxGeometry relative="1" as="geometry" />
        </mxCell>
        <mxCell id="swl-CrRnGrNiETKUzpTG-11" style="edgeStyle=orthogonalEdgeStyle;rounded=0;orthogonalLoop=1;jettySize=auto;html=1;entryX=0;entryY=0.5;entryDx=0;entryDy=0;" edge="1" parent="1" source="AtmiPv3TAr3_Vtmdqer5-4" target="swl-CrRnGrNiETKUzpTG-7">
          <mxGeometry relative="1" as="geometry" />
        </mxCell>
        <mxCell id="swl-CrRnGrNiETKUzpTG-12" style="edgeStyle=orthogonalEdgeStyle;rounded=0;orthogonalLoop=1;jettySize=auto;html=1;entryX=0;entryY=0.5;entryDx=0;entryDy=0;" edge="1" parent="1" source="AtmiPv3TAr3_Vtmdqer5-4" target="swl-CrRnGrNiETKUzpTG-8">
          <mxGeometry relative="1" as="geometry" />
        </mxCell>
        <mxCell id="AtmiPv3TAr3_Vtmdqer5-4" value="Klasterisasi&lt;div&gt;( &lt;i&gt;K-Means Clustering&amp;nbsp;&lt;/i&gt;)&lt;/div&gt;" style="rounded=1;whiteSpace=wrap;html=1;" vertex="1" parent="1">
          <mxGeometry x="80" y="220" width="160" height="50" as="geometry" />
        </mxCell>
        <mxCell id="AtmiPv3TAr3_Vtmdqer5-10" style="edgeStyle=orthogonalEdgeStyle;rounded=0;orthogonalLoop=1;jettySize=auto;html=1;entryX=0.5;entryY=0;entryDx=0;entryDy=0;" edge="1" parent="1" source="AtmiPv3TAr3_Vtmdqer5-5" target="AtmiPv3TAr3_Vtmdqer5-9">
          <mxGeometry relative="1" as="geometry" />
        </mxCell>
        <mxCell id="swl-CrRnGrNiETKUzpTG-25" style="edgeStyle=orthogonalEdgeStyle;rounded=0;orthogonalLoop=1;jettySize=auto;html=1;entryX=0;entryY=0.5;entryDx=0;entryDy=0;" edge="1" parent="1" source="AtmiPv3TAr3_Vtmdqer5-5" target="swl-CrRnGrNiETKUzpTG-23">
          <mxGeometry relative="1" as="geometry" />
        </mxCell>
        <mxCell id="swl-CrRnGrNiETKUzpTG-26" style="edgeStyle=orthogonalEdgeStyle;rounded=0;orthogonalLoop=1;jettySize=auto;html=1;entryX=0;entryY=0.5;entryDx=0;entryDy=0;" edge="1" parent="1" source="AtmiPv3TAr3_Vtmdqer5-5" target="swl-CrRnGrNiETKUzpTG-24">
          <mxGeometry relative="1" as="geometry" />
        </mxCell>
        <mxCell id="AtmiPv3TAr3_Vtmdqer5-5" value="Penentuan Jarak Terpendek&lt;div&gt;&lt;i&gt;(&amp;nbsp;&lt;span style=&quot;font-family: &amp;quot;Times New Roman&amp;quot;, &amp;quot;serif&amp;quot;; font-size: 12pt; background-color: transparent; color: light-dark(rgb(0, 0, 0), rgb(255, 255, 255));&quot;&gt;Floyd Warshall )&lt;/span&gt;&lt;/i&gt;&lt;/div&gt;" style="rounded=1;whiteSpace=wrap;html=1;" vertex="1" parent="1">
          <mxGeometry x="80" y="341" width="160" height="50" as="geometry" />
        </mxCell>
        <mxCell id="swl-CrRnGrNiETKUzpTG-32" style="edgeStyle=orthogonalEdgeStyle;rounded=0;orthogonalLoop=1;jettySize=auto;html=1;entryX=0;entryY=0.5;entryDx=0;entryDy=0;" edge="1" parent="1" source="AtmiPv3TAr3_Vtmdqer5-9" target="swl-CrRnGrNiETKUzpTG-27">
          <mxGeometry relative="1" as="geometry" />
        </mxCell>
        <mxCell id="swl-CrRnGrNiETKUzpTG-33" style="edgeStyle=orthogonalEdgeStyle;rounded=0;orthogonalLoop=1;jettySize=auto;html=1;entryX=0;entryY=0.5;entryDx=0;entryDy=0;" edge="1" parent="1" source="AtmiPv3TAr3_Vtmdqer5-9" target="swl-CrRnGrNiETKUzpTG-28">
          <mxGeometry relative="1" as="geometry" />
        </mxCell>
        <mxCell id="swl-CrRnGrNiETKUzpTG-34" style="edgeStyle=orthogonalEdgeStyle;rounded=0;orthogonalLoop=1;jettySize=auto;html=1;entryX=0;entryY=0.5;entryDx=0;entryDy=0;" edge="1" parent="1" source="AtmiPv3TAr3_Vtmdqer5-9" target="swl-CrRnGrNiETKUzpTG-29">
          <mxGeometry relative="1" as="geometry" />
        </mxCell>
        <mxCell id="swl-CrRnGrNiETKUzpTG-35" style="edgeStyle=orthogonalEdgeStyle;rounded=0;orthogonalLoop=1;jettySize=auto;html=1;entryX=0;entryY=0.5;entryDx=0;entryDy=0;" edge="1" parent="1" source="AtmiPv3TAr3_Vtmdqer5-9" target="swl-CrRnGrNiETKUzpTG-30">
          <mxGeometry relative="1" as="geometry" />
        </mxCell>
        <mxCell id="swl-CrRnGrNiETKUzpTG-36" style="edgeStyle=orthogonalEdgeStyle;rounded=0;orthogonalLoop=1;jettySize=auto;html=1;entryX=0;entryY=0.5;entryDx=0;entryDy=0;" edge="1" parent="1" source="AtmiPv3TAr3_Vtmdqer5-9" target="swl-CrRnGrNiETKUzpTG-31">
          <mxGeometry relative="1" as="geometry" />
        </mxCell>
        <mxCell id="AtmiPv3TAr3_Vtmdqer5-9" value="Perengkingan&lt;div&gt;( &lt;i&gt;Weighted Product &lt;/i&gt;)&lt;/div&gt;" style="rounded=1;whiteSpace=wrap;html=1;" vertex="1" parent="1">
          <mxGeometry x="80" y="431" width="160" height="50" as="geometry" />
        </mxCell>
        <mxCell id="swl-CrRnGrNiETKUzpTG-1" value="Penilaian" style="rounded=1;whiteSpace=wrap;html=1;" vertex="1" parent="1">
          <mxGeometry x="317" y="162" width="96" height="20" as="geometry" />
        </mxCell>
        <mxCell id="swl-CrRnGrNiETKUzpTG-2" value="Penentuan Kriteria" style="rounded=1;whiteSpace=wrap;html=1;" vertex="1" parent="1">
          <mxGeometry x="317" y="130" width="122" height="20" as="geometry" />
        </mxCell>
        <mxCell id="swl-CrRnGrNiETKUzpTG-3" value="Penentuan Nilai K" style="rounded=1;whiteSpace=wrap;html=1;" vertex="1" parent="1">
          <mxGeometry x="317" y="192" width="132" height="20" as="geometry" />
        </mxCell>
        <mxCell id="swl-CrRnGrNiETKUzpTG-6" value="Inisialisasi Centroid" style="rounded=1;whiteSpace=wrap;html=1;" vertex="1" parent="1">
          <mxGeometry x="317" y="222" width="132" height="20" as="geometry" />
        </mxCell>
        <mxCell id="swl-CrRnGrNiETKUzpTG-7" value="Menghitung Jarang Antar Centroid" style="rounded=1;whiteSpace=wrap;html=1;" vertex="1" parent="1">
          <mxGeometry x="317" y="252" width="140" height="30" as="geometry" />
        </mxCell>
        <mxCell id="swl-CrRnGrNiETKUzpTG-18" style="edgeStyle=none;rounded=0;orthogonalLoop=1;jettySize=auto;html=1;" edge="1" parent="1" source="swl-CrRnGrNiETKUzpTG-8" target="swl-CrRnGrNiETKUzpTG-6">
          <mxGeometry relative="1" as="geometry">
            <Array as="points">
              <mxPoint x="480" y="300" />
              <mxPoint x="480" y="230" />
            </Array>
          </mxGeometry>
        </mxCell>
        <mxCell id="swl-CrRnGrNiETKUzpTG-8" value="Mengelompokan Klaster" style="rounded=1;whiteSpace=wrap;html=1;" vertex="1" parent="1">
          <mxGeometry x="317" y="292" width="132" height="20" as="geometry" />
        </mxCell>
        <mxCell id="swl-CrRnGrNiETKUzpTG-13" value="1" style="text;html=1;align=center;verticalAlign=middle;resizable=0;points=[];autosize=1;strokeColor=none;fillColor=none;" vertex="1" parent="1">
          <mxGeometry x="280" y="182" width="30" height="30" as="geometry" />
        </mxCell>
        <mxCell id="swl-CrRnGrNiETKUzpTG-14" value="2" style="text;html=1;align=center;verticalAlign=middle;resizable=0;points=[];autosize=1;strokeColor=none;fillColor=none;" vertex="1" parent="1">
          <mxGeometry x="280" y="212" width="30" height="30" as="geometry" />
        </mxCell>
        <mxCell id="swl-CrRnGrNiETKUzpTG-15" value="3" style="text;html=1;align=center;verticalAlign=middle;resizable=0;points=[];autosize=1;strokeColor=none;fillColor=none;" vertex="1" parent="1">
          <mxGeometry x="280" y="246" width="30" height="30" as="geometry" />
        </mxCell>
        <mxCell id="swl-CrRnGrNiETKUzpTG-16" value="4" style="text;html=1;align=center;verticalAlign=middle;resizable=0;points=[];autosize=1;strokeColor=none;fillColor=none;" vertex="1" parent="1">
          <mxGeometry x="280" y="280" width="30" height="30" as="geometry" />
        </mxCell>
        <mxCell id="swl-CrRnGrNiETKUzpTG-19" value="Ulangi Sampai Nilai Konvergen" style="text;html=1;align=center;verticalAlign=middle;resizable=0;points=[];autosize=1;strokeColor=none;fillColor=none;rotation=90;fontSize=6;" vertex="1" parent="1">
          <mxGeometry x="430" y="252" width="110" height="20" as="geometry" />
        </mxCell>
        <mxCell id="swl-CrRnGrNiETKUzpTG-23" value="Inisialisasi Matriks Jarak" style="rounded=1;whiteSpace=wrap;html=1;" vertex="1" parent="1">
          <mxGeometry x="317" y="341" width="132" height="20" as="geometry" />
        </mxCell>
        <mxCell id="swl-CrRnGrNiETKUzpTG-24" value="Iterasi Setiap K" style="rounded=1;whiteSpace=wrap;html=1;" vertex="1" parent="1">
          <mxGeometry x="317" y="371" width="132" height="20" as="geometry" />
        </mxCell>
        <mxCell id="swl-CrRnGrNiETKUzpTG-27" value="Menentukan Nilai (X)" style="rounded=1;whiteSpace=wrap;html=1;" vertex="1" parent="1">
          <mxGeometry x="317" y="401" width="132" height="20" as="geometry" />
        </mxCell>
        <mxCell id="swl-CrRnGrNiETKUzpTG-28" value="Mengubah Bobot Berdasarkan Tipe" style="rounded=1;whiteSpace=wrap;html=1;" vertex="1" parent="1">
          <mxGeometry x="317" y="421" width="140" height="30" as="geometry" />
        </mxCell>
        <mxCell id="swl-CrRnGrNiETKUzpTG-29" value="Skor Alternatif" style="rounded=1;whiteSpace=wrap;html=1;" vertex="1" parent="1">
          <mxGeometry x="317" y="451" width="133" height="20" as="geometry" />
        </mxCell>
        <mxCell id="swl-CrRnGrNiETKUzpTG-30" value="Normalisasi" style="rounded=1;whiteSpace=wrap;html=1;" vertex="1" parent="1">
          <mxGeometry x="317" y="471" width="133" height="20" as="geometry" />
        </mxCell>
        <mxCell id="swl-CrRnGrNiETKUzpTG-31" value="Penentuan Rangking" style="rounded=1;whiteSpace=wrap;html=1;" vertex="1" parent="1">
          <mxGeometry x="317" y="491" width="133" height="20" as="geometry" />
        </mxCell>
      </root>
    </mxGraphModel>
  </diagram>
  <diagram id="HKPzExc3nak37tab4eE9" name="Halaman-2">
    <mxGraphModel dx="946" dy="605" grid="1" gridSize="10" guides="1" tooltips="1" connect="1" arrows="1" fold="1" page="1" pageScale="1" pageWidth="827" pageHeight="1169" math="0" shadow="0">
      <root>
        <mxCell id="0" />
        <mxCell id="1" parent="0" />
      </root>
    </mxGraphModel>
  </diagram>
</mxfile>
